<svg width="16" height="16" viewBox="0 0 16 16" fill="none" xmlns="http://www.w3.org/2000/svg">
<mask id="path-1-inside-1_7014_11" fill="white">
<path fill-rule="evenodd" clip-rule="evenodd" d="M0.833374 7.66671C0.833374 11.4334 3.90004 14.5 7.66671 14.5C11.4334 14.5 14.5 11.4334 14.5 7.66671C14.5 3.90004 11.4334 0.833374 7.66671 0.833374C3.90004 0.833374 0.833374 3.90004 0.833374 7.66671ZM1.83337 7.66671C1.83337 4.45337 4.44671 1.83337 7.66671 1.83337C10.8867 1.83337 13.5 4.45337 13.5 7.66671C13.5 10.88 10.8867 13.5 7.66671 13.5C4.44671 13.5 1.83337 10.88 1.83337 7.66671ZM14.3134 15.02C14.4134 15.12 14.54 15.1666 14.6667 15.1666C14.7934 15.1666 14.92 15.12 15.02 15.02C15.2134 14.8266 15.2134 14.5066 15.02 14.3133L13.6867 12.98C13.4934 12.7866 13.1734 12.7866 12.98 12.98C12.7867 13.1733 12.7867 13.4933 12.98 13.6866L14.3134 15.02Z"/>
</mask>
<path fill-rule="evenodd" clip-rule="evenodd" d="M0.833374 7.66671C0.833374 11.4334 3.90004 14.5 7.66671 14.5C11.4334 14.5 14.5 11.4334 14.5 7.66671C14.5 3.90004 11.4334 0.833374 7.66671 0.833374C3.90004 0.833374 0.833374 3.90004 0.833374 7.66671ZM1.83337 7.66671C1.83337 4.45337 4.44671 1.83337 7.66671 1.83337C10.8867 1.83337 13.5 4.45337 13.5 7.66671C13.5 10.88 10.8867 13.5 7.66671 13.5C4.44671 13.5 1.83337 10.88 1.83337 7.66671ZM14.3134 15.02C14.4134 15.12 14.54 15.1666 14.6667 15.1666C14.7934 15.1666 14.92 15.12 15.02 15.02C15.2134 14.8266 15.2134 14.5066 15.02 14.3133L13.6867 12.98C13.4934 12.7866 13.1734 12.7866 12.98 12.98C12.7867 13.1733 12.7867 13.4933 12.98 13.6866L14.3134 15.02Z" fill="#999FA6"/>
<path d="M14.3134 15.02L13.6063 15.7271L13.6063 15.7271L14.3134 15.02ZM15.02 15.02L15.7271 15.7271L15.7271 15.7271L15.02 15.02ZM15.02 14.3133L15.7271 13.6062L15.7271 13.6062L15.02 14.3133ZM13.6867 12.98L12.9796 13.6871L12.9796 13.6871L13.6867 12.98ZM12.98 12.98L13.6871 13.6871L13.6871 13.6871L12.98 12.98ZM12.98 13.6866L13.6871 12.9795L13.6871 12.9795L12.98 13.6866ZM7.66671 13.5C4.45233 13.5 1.83337 10.8811 1.83337 7.66671H-0.166626C-0.166626 11.9857 3.34776 15.5 7.66671 15.5V13.5ZM13.5 7.66671C13.5 10.8811 10.8811 13.5 7.66671 13.5V15.5C11.9857 15.5 15.5 11.9857 15.5 7.66671H13.5ZM7.66671 1.83337C10.8811 1.83337 13.5 4.45233 13.5 7.66671H15.5C15.5 3.34776 11.9857 -0.166626 7.66671 -0.166626V1.83337ZM1.83337 7.66671C1.83337 4.45233 4.45233 1.83337 7.66671 1.83337V-0.166626C3.34776 -0.166626 -0.166626 3.34776 -0.166626 7.66671H1.83337ZM7.66671 0.833374C3.89368 0.833374 0.833374 3.90183 0.833374 7.66671H2.83337C2.83337 5.00491 4.99974 2.83337 7.66671 2.83337V0.833374ZM14.5 7.66671C14.5 3.90183 11.4397 0.833374 7.66671 0.833374V2.83337C10.3337 2.83337 12.5 5.00491 12.5 7.66671H14.5ZM7.66671 14.5C11.4397 14.5 14.5 11.4316 14.5 7.66671H12.5C12.5 10.3285 10.3337 12.5 7.66671 12.5V14.5ZM0.833374 7.66671C0.833374 11.4316 3.89368 14.5 7.66671 14.5V12.5C4.99974 12.5 2.83337 10.3285 2.83337 7.66671H0.833374ZM14.6667 14.1666C14.7909 14.1666 14.9231 14.2154 15.0205 14.3129L13.6063 15.7271C13.9037 16.0245 14.2891 16.1666 14.6667 16.1666V14.1666ZM14.3129 14.3129C14.4104 14.2154 14.5425 14.1666 14.6667 14.1666V16.1666C15.0443 16.1666 15.4297 16.0245 15.7271 15.7271L14.3129 14.3129ZM14.3129 15.0204C14.1157 14.8232 14.1157 14.51 14.3129 14.3129L15.7271 15.7271C16.311 15.1432 16.311 14.19 15.7271 13.6062L14.3129 15.0204ZM12.9796 13.6871L14.3129 15.0204L15.7271 13.6062L14.3938 12.2729L12.9796 13.6871ZM13.6871 13.6871C13.49 13.8843 13.1768 13.8843 12.9796 13.6871L14.3938 12.2729C13.81 11.689 12.8568 11.689 12.2729 12.2729L13.6871 13.6871ZM13.6871 12.9795C13.8843 13.1767 13.8843 13.4899 13.6871 13.6871L12.2729 12.2729C11.6891 12.8567 11.6891 13.8099 12.2729 14.3937L13.6871 12.9795ZM15.0205 14.3129L13.6871 12.9795L12.2729 14.3937L13.6063 15.7271L15.0205 14.3129Z" fill="black" mask="url(#path-1-inside-1_7014_11)"/>
</svg>
