<svg width="30" height="30" viewBox="0 0 30 30" fill="none" xmlns="http://www.w3.org/2000/svg">
<path d="M22.5467 29.2267C21.84 29.2267 20.9333 29 19.8 28.3333L15.8133 25.9733C15.4 25.7333 14.6 25.7333 14.2 25.9733L10.2 28.3333C7.83999 29.7333 6.45333 29.1733 5.82666 28.72C5.21333 28.2667 4.25333 27.1067 4.87999 24.44L5.82666 20.3467C5.93333 19.92 5.71999 19.1867 5.39999 18.8667L2.09333 15.56C0.439994 13.9067 0.573328 12.4933 0.799994 11.8C1.02666 11.1067 1.74666 9.88001 4.03999 9.49334L8.29333 8.78668C8.69333 8.72001 9.26666 8.29334 9.43999 7.93334L11.8 3.22668C12.8667 1.08001 14.2667 0.76001 15 0.76001C15.7333 0.76001 17.1333 1.08001 18.2 3.22668L20.5467 7.92001C20.7333 8.28001 21.3067 8.70668 21.7067 8.77334L25.96 9.48001C28.2667 9.86668 28.9867 11.0933 29.2 11.7867C29.4133 12.48 29.5467 13.8933 27.9067 15.5467L24.6 18.8667C24.28 19.1867 24.08 19.9067 24.1733 20.3467L25.12 24.44C25.7333 27.1067 24.7867 28.2667 24.1733 28.72C23.84 28.96 23.3067 29.2267 22.5467 29.2267ZM15 23.7867C15.6533 23.7867 16.3067 23.9467 16.8267 24.2533L20.8133 26.6133C21.9733 27.3067 22.7067 27.3067 22.9867 27.1067C23.2667 26.9067 23.4667 26.2 23.1733 24.8933L22.2267 20.8C21.9733 19.6933 22.3867 18.2667 23.1867 17.4533L26.4933 14.1467C27.1467 13.4933 27.44 12.8533 27.3067 12.4133C27.16 11.9733 26.5467 11.6133 25.64 11.4667L21.3867 10.76C20.36 10.5867 19.24 9.76001 18.7733 8.82668L16.4267 4.13334C16 3.28001 15.4667 2.77334 15 2.77334C14.5333 2.77334 14 3.28001 13.5867 4.13334L11.2267 8.82668C10.76 9.76001 9.63999 10.5867 8.61333 10.76L4.37333 11.4667C3.46666 11.6133 2.85333 11.9733 2.70666 12.4133C2.55999 12.8533 2.86666 13.5067 3.51999 14.1467L6.82666 17.4533C7.62666 18.2533 8.03999 19.6933 7.78666 20.8L6.83999 24.8933C6.53333 26.2133 6.74666 26.9067 7.02666 27.1067C7.30666 27.3067 8.02666 27.2933 9.19999 26.6133L13.1867 24.2533C13.6933 23.9467 14.3467 23.7867 15 23.7867Z" fill="#333333"/>
</svg>
